<?xml version="1.0" standalone="no"?><!DOCTYPE svg PUBLIC "-//W3C//DTD SVG 1.1//EN" "http://www.w3.org/Graphics/SVG/1.1/DTD/svg11.dtd"><svg t="1619415629320" class="icon" viewBox="0 0 1228 1024" version="1.1" xmlns="http://www.w3.org/2000/svg" p-id="2872" xmlns:xlink="http://www.w3.org/1999/xlink" width="19.1875" height="16"><defs><style type="text/css"></style></defs><path d="M1139.0976 711.2704H448.1024a61.3376 61.3376 0 0 1-60.672-61.9008c0-34.048 27.136-61.9008 60.672-61.9008h690.9952c33.5872 0 60.672 27.8528 60.672 61.952 0 33.9968-27.136 61.8496-60.672 61.8496z m0-288.8192H448.1024a61.3376 61.3376 0 0 1-60.672-61.9008c0-34.048 27.136-61.9008 60.672-61.9008h690.9952c33.5872 0 60.672 27.8528 60.672 61.952 0 33.9968-27.136 61.8496-60.672 61.8496z m-4.352-278.528H73.3696c-35.7376 0-65.024-27.8528-65.024-61.8496 0-34.048 29.2864-61.952 65.024-61.952h1061.376c35.7888 0 65.024 27.904 65.024 61.952 0 33.9968-29.2352 61.8496-65.024 61.8496zM311.6544 711.2704L8.3456 504.9344l303.3088-206.2848v412.6208z m-238.2848 154.7264h1061.376c35.7888 0 65.024 27.8528 65.024 61.9008s-29.2352 61.9008-65.024 61.9008H73.3696c-35.7376 0-65.024-27.8528-65.024-61.952 0-33.9968 29.2864-61.8496 65.024-61.8496z" fill="#FFFFFF" p-id="2873"></path></svg>